<svg width="60" height="60" xmlns="http://www.w3.org/2000/svg">
 <title/>
 <desc/>

 <g>
  <title>background</title>
  <rect fill="none" id="canvas_background" height="402" width="582" y="-1" x="-1"/>
 </g>
 <g>
  <title fill="#343a40">Layer 1</title>
  <path fill="#343a40" id="svg_1" d="m25.42527,47.51689c0,-0.44972 -0.01586,-1.63966 -0.02493,-3.22006c-5.13516,1.14346 -6.21863,-2.53793 -6.21863,-2.53793c-0.83981,-2.18699 -2.05022,-2.76918 -2.05022,-2.76918c-1.67621,-1.17484 0.12694,-1.15044 0.12694,-1.15044c1.85301,0.13364 2.82768,1.9511 2.82768,1.9511c1.64674,2.89235 4.32029,2.058 5.37316,1.57342c0.16774,-1.22365 0.64487,-2.058 1.17188,-2.53096c-4.09929,-0.4776 -8.40938,-2.10216 -8.40938,-9.35571c0,-2.06614 0.71967,-3.75577 1.90061,-5.07935c-0.18927,-0.47877 -0.82394,-2.40314 0.18133,-5.00963c0,0 1.55041,-0.50898 5.07623,1.94064c1.47221,-0.41951 3.05208,-0.631 4.62289,-0.63797c1.56741,0.00697 3.14615,0.21846 4.62176,0.63797c3.52356,-2.44962 5.0717,-1.94064 5.0717,-1.94064c1.00754,2.60533 0.374,4.5297 0.1836,5.00963c1.18321,1.32358 1.89721,3.01321 1.89721,5.07935c0,7.27214 -4.31689,8.8723 -8.42978,9.3406c0.66414,0.58452 1.25347,1.7396 1.25347,3.50593c0,2.53096 -0.0238,4.57269 -0.0238,5.19323c0,0.50666 0.3332,1.09466 1.27048,0.90989c7.3293,-2.50772 12.61407,-9.59859 12.61407,-17.95842c0,-10.45502 -8.26658,-18.9299 -18.46211,-18.9299c-10.19439,0 -18.46097,8.47488 -18.46097,18.9299c0.00113,8.36216 5.29043,15.45767 12.62654,17.96074c0.92254,0.17315 1.26027,-0.41136 1.26027,-0.91221z"/>
 </g>
</svg>