<svg width="512" height="512" xmlns="http://www.w3.org/2000/svg">
 <g>
  <title>background</title>
  <rect x="-1" y="-1" width="810.090062" height="810.090062" id="canvas_background" fill="none"/>
 </g>

 <g>
  <title fill="#712b30">Layer 1</title>
  <path d="m1,53c2.5,0 1.7,-2 1.9,-3.3c3,-20.7 13.7,-35.8 33.7,-42.3c16.1,-5.2 32.9,-4.6 47.9,4c9.4,5.5 16.6,14 20.4,24.5c2.8,7.8 4.9,15.9 4,24.2c-2.1,20.9 -11.5,38.3 -34.5,46.4c-17.4,6 -34.3,3.8 -50.2,-5.7c-1,-3.6 -3.5,-5.4 -7.1,-6c0,0 0,0 0,0c-0.1,-1.4 -0.3,-2.8 -2.2,-2.8c-7.2,-8 -10.6,-17.7 -12,-28.2c-0.2,-1.2 0.3,-2.9 -1.9,-2.8c0,-2.7 0,-5.3 0,-8z" fill="#712b30" id="svg_2"/>
  <path d="m276.2,216.1c4.3,-2.6 6,-6.4 8.2,-9.5c10.9,-15 24.4,-26.6 41.2,-34.9c23,-11.3 47.4,-12.5 72,-10.2c18.9,1.7 36.8,8.1 53.1,18.5c19.4,12.4 33.3,29.6 42.8,50.2c5.8,12.5 9.6,25.8 11.9,39.6c2.1,12.9 3.7,25.6 3.7,38.7c-0.1,65 -0.1,130 0.1,195c0,4.6 -1.3,5.8 -5.8,5.7c-30.7,-0.2 -61.3,-0.2 -92,0c-4.5,0 -5.5,-1.3 -5.5,-5.6c0.1,-61.3 0.4,-122.7 -0.1,-184c-0.1,-13.9 -2,-27.7 -9.2,-40.4c-6.4,-11.2 -15.3,-19.2 -27,-23.8c-15.7,-6.2 -31.9,-7.4 -48.3,-2.8c-16.6,4.6 -28.1,15.5 -36.3,30.3c-4.6,8.3 -6.2,17 -7.5,26.3c-1.3,10 -1.1,19.8 -1.1,29.7c-0.2,54.7 -0.2,109.3 0,164c0,5 -1.2,6.4 -6.3,6.3c-30.3,-0.3 -60.7,-0.2 -91,0c-4.2,0 -5.7,-1.3 -5.6,-5.2c0.1,-2.8 0.3,-5.6 0.3,-8.4c0,-105.5 0.1,-211 -0.1,-316.5c0,-4.4 0.9,-6 5.7,-6c30.5,0.2 61,0.2 91.5,0c4.1,0 5.5,1 5.4,5.3c-0.3,12.2 -0.1,24.5 -0.1,37.7z" fill="#712b30" id="svg_3"/>
  <path d="m109,176.1c0,3.5 0.1,7 0.1,10.5c0,105.3 0,210.6 0,316c0,6.4 0,6.4 -6.5,6.4c-31.8,0 -63.7,0 -95.5,0c-0.1,-2.5 -0.2,-5 -0.2,-7.5c0,-78.8 0,-157.5 0,-236.3c0,-28.1 0.1,-56.3 -0.1,-84.4c0,-3.6 0.9,-4.9 4.7,-4.9c32.5,0.2 65,0.1 97.5,0.2z" fill="#712b30" id="svg_4"/>
  <path d="m109,176.1c-32.5,0 -64.9,0 -97.4,-0.2c-3.8,0 -4.7,1.2 -4.7,4.9c0.1,28.1 0,56.2 0,84.4c0,78.8 0,157.5 0,236.3c0,2.5 0.1,5 0.2,7.5c-1.7,0.1 -3,-0.3 -3,-2.3c0,-1.3 0,-2.7 0,-4c0,-106.8 0,-213.5 0,-320.3c0,-7.6 0.7,-8.3 8.2,-8.3c30.5,0 61,0 91.4,0.1c1.8,-0.1 4.5,-1.5 5.3,1.9z" fill="#712b30" id="svg_5"/>
  <path d="m17.1,94.9c3.6,0.6 6.1,2.4 7.1,6c-3.1,-1.2 -5.4,-3.2 -7.1,-6z" fill="#712b30" id="svg_6"/>
  <path d="m14.9,92.1c1.9,0 2,1.4 2.2,2.8c-2.1,0.1 -2.1,-1.3 -2.2,-2.8z" fill="#712b30" id="svg_7"/>
 </g>
</svg>